<svg width="354" height="47" viewBox="0 0 354 47" fill="none" xmlns="http://www.w3.org/2000/svg">
<path d="M0.460228 46V0.90909H27.6733V5.75284H5.92046V20.9886H26.2642V25.8324H5.92046V41.1562H28.0256V46H0.460228ZM42.0064 0.90909V46H36.8104V0.90909H42.0064ZM65.7022 46.7045C62.4437 46.7045 59.6329 45.9853 57.2697 44.5469C54.9212 43.0938 53.1085 41.0682 51.8315 38.4702C50.5692 35.8575 49.938 32.8191 49.938 29.3551C49.938 25.8911 50.5692 22.8381 51.8315 20.196C53.1085 17.5393 54.8845 15.4697 57.1596 13.9872C59.4494 12.4901 62.1208 11.7415 65.1738 11.7415C66.9352 11.7415 68.6745 12.035 70.3919 12.6222C72.1092 13.2093 73.6724 14.1634 75.0815 15.4844C76.4906 16.7907 77.6135 18.5227 78.4501 20.6804C79.2868 22.8381 79.7051 25.4948 79.7051 28.6506V30.8523H53.6369V26.3608H74.421C74.421 24.4527 74.0394 22.75 73.2761 21.2528C72.5275 19.7557 71.456 18.5741 70.0616 17.7081C68.6819 16.8421 67.0526 16.4091 65.1738 16.4091C63.1042 16.4091 61.3135 16.9228 59.8017 17.9503C58.3045 18.9631 57.1523 20.2841 56.345 21.9134C55.5377 23.5426 55.1341 25.2893 55.1341 27.1534V30.1477C55.1341 32.7017 55.5744 34.8667 56.4551 36.6428C57.3504 38.4041 58.5907 39.7472 60.176 40.6719C61.7612 41.5819 63.6033 42.0369 65.7022 42.0369C67.0673 42.0369 68.3002 41.8461 69.4011 41.4645C70.5166 41.0682 71.478 40.4811 72.2853 39.7031C73.0926 38.9105 73.7164 37.9271 74.1568 36.7528L79.1767 38.1619C78.6483 39.8646 77.7602 41.3617 76.5126 42.6534C75.265 43.9304 73.7238 44.9285 71.889 45.6477C70.0543 46.3523 67.992 46.7045 65.7022 46.7045ZM114.233 12.1818L101.728 46H96.4435L83.9379 12.1818H89.5742L98.9094 39.1307H99.2617L108.597 12.1818H114.233ZM134.06 46.7045C130.801 46.7045 127.99 45.9853 125.627 44.5469C123.279 43.0938 121.466 41.0682 120.189 38.4702C118.927 35.8575 118.295 32.8191 118.295 29.3551C118.295 25.8911 118.927 22.8381 120.189 20.196C121.466 17.5393 123.242 15.4697 125.517 13.9872C127.807 12.4901 130.478 11.7415 133.531 11.7415C135.293 11.7415 137.032 12.035 138.749 12.6222C140.467 13.2093 142.03 14.1634 143.439 15.4844C144.848 16.7907 145.971 18.5227 146.808 20.6804C147.644 22.8381 148.062 25.4948 148.062 28.6506V30.8523H121.994V26.3608H142.778C142.778 24.4527 142.397 22.75 141.634 21.2528C140.885 19.7557 139.813 18.5741 138.419 17.7081C137.039 16.8421 135.41 16.4091 133.531 16.4091C131.462 16.4091 129.671 16.9228 128.159 17.9503C126.662 18.9631 125.51 20.2841 124.702 21.9134C123.895 23.5426 123.491 25.2893 123.491 27.1534V30.1477C123.491 32.7017 123.932 34.8667 124.812 36.6428C125.708 38.4041 126.948 39.7472 128.533 40.6719C130.119 41.5819 131.961 42.0369 134.06 42.0369C135.425 42.0369 136.658 41.8461 137.759 41.4645C138.874 41.0682 139.835 40.4811 140.643 39.7031C141.45 38.9105 142.074 37.9271 142.514 36.7528L147.534 38.1619C147.006 39.8646 146.118 41.3617 144.87 42.6534C143.622 43.9304 142.081 44.9285 140.246 45.6477C138.412 46.3523 136.349 46.7045 134.06 46.7045ZM161.163 25.6562V46H155.967V12.1818H160.987V17.4659H161.427C162.219 15.7486 163.423 14.3688 165.038 13.3267C166.652 12.2699 168.737 11.7415 171.29 11.7415C173.58 11.7415 175.584 12.2112 177.301 13.1506C179.018 14.0753 180.354 15.4844 181.308 17.3778C182.262 19.2566 182.739 21.6345 182.739 24.5114V46H177.543V24.8636C177.543 22.2069 176.853 20.1373 175.474 18.6548C174.094 17.1577 172.201 16.4091 169.793 16.4091C168.135 16.4091 166.652 16.7687 165.346 17.4879C164.054 18.2071 163.034 19.2566 162.286 20.6364C161.537 22.0161 161.163 23.6894 161.163 25.6562ZM205.747 46V0.90909H223.801C227.118 0.90909 229.885 1.4008 232.102 2.38423C234.318 3.36766 235.984 4.73272 237.099 6.4794C238.215 8.21141 238.773 10.2076 238.773 12.468C238.773 14.2294 238.42 15.7779 237.716 17.1136C237.011 18.4347 236.043 19.5208 234.81 20.3722C233.591 21.2088 232.197 21.8033 230.626 22.1555V22.5959C232.344 22.6693 233.951 23.1536 235.448 24.049C236.96 24.9444 238.186 26.1993 239.125 27.8139C240.064 29.4138 240.534 31.322 240.534 33.5384C240.534 35.9309 239.94 38.0665 238.751 39.9453C237.576 41.8094 235.837 43.2846 233.533 44.3707C231.228 45.4569 228.388 46 225.012 46H205.747ZM215.281 38.206H223.053C225.709 38.206 227.647 37.6996 228.865 36.6868C230.083 35.6593 230.692 34.2943 230.692 32.5916C230.692 31.344 230.392 30.2431 229.79 29.2891C229.188 28.335 228.329 27.5864 227.214 27.0433C226.113 26.5002 224.799 26.2287 223.273 26.2287H215.281V38.206ZM215.281 19.7777H222.348C223.654 19.7777 224.814 19.5502 225.827 19.0952C226.854 18.6255 227.661 17.965 228.249 17.1136C228.85 16.2623 229.151 15.2422 229.151 14.0533C229.151 12.424 228.571 11.1103 227.412 10.1122C226.267 9.11411 224.638 8.61505 222.524 8.61505H215.281V19.7777ZM256.205 46.6385C254.047 46.6385 252.124 46.2642 250.436 45.5156C248.748 44.7524 247.413 43.6295 246.429 42.147C245.46 40.6499 244.976 38.7857 244.976 36.5547C244.976 34.6759 245.321 33.098 246.011 31.821C246.701 30.544 247.64 29.5166 248.829 28.7386C250.018 27.9607 251.368 27.3736 252.88 26.9773C254.407 26.581 256.007 26.3021 257.68 26.1406C259.647 25.9351 261.232 25.7443 262.436 25.5682C263.639 25.3774 264.512 25.0985 265.056 24.7315C265.599 24.3646 265.87 23.8215 265.87 23.1023V22.9702C265.87 21.5758 265.43 20.4969 264.549 19.7337C263.683 18.9704 262.45 18.5888 260.85 18.5888C259.162 18.5888 257.819 18.9631 256.821 19.7116C255.823 20.4455 255.163 21.3703 254.84 22.4858L246.165 21.7812C246.605 19.7263 247.471 17.9503 248.763 16.4531C250.055 14.9413 251.721 13.7817 253.761 12.9744C255.816 12.1525 258.194 11.7415 260.894 11.7415C262.773 11.7415 264.571 11.9616 266.289 12.402C268.021 12.8423 269.554 13.5249 270.89 14.4496C272.24 15.3743 273.305 16.5632 274.083 18.0163C274.86 19.4548 275.249 21.1794 275.249 23.1903V46H266.355V41.3104H266.09C265.547 42.3672 264.821 43.2992 263.911 44.1065C263.001 44.8991 261.907 45.523 260.63 45.978C259.353 46.4183 257.878 46.6385 256.205 46.6385ZM258.891 40.1655C260.271 40.1655 261.489 39.8939 262.546 39.3509C263.602 38.7931 264.432 38.0445 265.034 37.1051C265.635 36.1657 265.936 35.1016 265.936 33.9126V30.3239C265.643 30.5147 265.239 30.6908 264.725 30.8523C264.226 30.9991 263.661 31.1385 263.03 31.2706C262.399 31.388 261.768 31.4981 261.137 31.6009C260.505 31.6889 259.933 31.7696 259.419 31.843C258.318 32.0045 257.357 32.2614 256.535 32.6136C255.713 32.9659 255.075 33.4429 254.619 34.0447C254.164 34.6319 253.937 35.3658 253.937 36.2464C253.937 37.5234 254.399 38.4995 255.324 39.1747C256.263 39.8352 257.452 40.1655 258.891 40.1655ZM291.905 26.4489V46H282.526V12.1818H291.465V18.1484H291.861C292.61 16.1816 293.865 14.6257 295.626 13.4808C297.388 12.3213 299.523 11.7415 302.033 11.7415C304.382 11.7415 306.429 12.2552 308.176 13.2827C309.923 14.3101 311.28 15.7779 312.249 17.6861C313.218 19.5795 313.702 21.84 313.702 24.4673V46H304.323V26.1406C304.338 24.071 303.809 22.4564 302.738 21.2969C301.666 20.1226 300.191 19.5355 298.312 19.5355C297.05 19.5355 295.934 19.8071 294.966 20.3501C294.012 20.8932 293.263 21.6858 292.72 22.728C292.192 23.7554 291.92 24.9957 291.905 26.4489ZM329.593 36.2685L329.615 25.0178H330.98L341.812 12.1818H352.579L338.026 29.179H335.802L329.593 36.2685ZM321.094 46V0.90909H330.474V46H321.094ZM342.231 46L332.279 31.2706L338.532 24.6435L353.217 46H342.231Z" fill="white"/>
</svg>
