<svg width="307" height="31" viewBox="0 0 307 31" fill="none" xmlns="http://www.w3.org/2000/svg">
<path d="M3.71591 30H0.0227273L10.7045 0.90909H14.3409L25.0227 30H21.3295L12.6364 5.51136H12.4091L3.71591 30ZM5.07955 18.6364H19.9659V21.7614H5.07955V18.6364ZM42.8494 21.0795V8.18182H46.2017V30H42.8494V26.3068H42.6222C42.1108 27.4148 41.3153 28.357 40.2358 29.1335C39.1563 29.9006 37.7926 30.2841 36.1449 30.2841C34.7812 30.2841 33.5691 29.9858 32.5085 29.3892C31.4479 28.7831 30.6146 27.8741 30.0085 26.6619C29.4025 25.4403 29.0994 23.9015 29.0994 22.0455V8.18182H32.4517V21.8182C32.4517 23.4091 32.8968 24.678 33.7869 25.625C34.6866 26.572 35.8324 27.0455 37.2244 27.0455C38.0578 27.0455 38.9053 26.8324 39.767 26.4062C40.6383 25.9801 41.3674 25.3267 41.9545 24.446C42.5511 23.5653 42.8494 22.4432 42.8494 21.0795ZM61.8303 8.18182V11.0227H50.5234V8.18182H61.8303ZM53.8189 2.95455H57.1712V23.75C57.1712 24.697 57.3085 25.4072 57.5831 25.8807C57.8672 26.3447 58.227 26.6572 58.6626 26.8182C59.1077 26.9697 59.5765 27.0455 60.0689 27.0455C60.4382 27.0455 60.7412 27.0265 60.978 26.9886C61.2147 26.9413 61.4041 26.9034 61.5462 26.875L62.228 29.8864C62.0007 29.9716 61.6835 30.0568 61.2763 30.142C60.8691 30.2367 60.353 30.2841 59.728 30.2841C58.781 30.2841 57.853 30.0805 56.9439 29.6733C56.0443 29.2661 55.2962 28.6458 54.6996 27.8125C54.1125 26.9792 53.8189 25.928 53.8189 24.6591V2.95455ZM75.5021 30.4545C73.5324 30.4545 71.8042 29.9858 70.3175 29.0483C68.8402 28.1108 67.6849 26.7992 66.8516 25.1136C66.0277 23.428 65.6158 21.4583 65.6158 19.2045C65.6158 16.9318 66.0277 14.9479 66.8516 13.2528C67.6849 11.5578 68.8402 10.2415 70.3175 9.30398C71.8042 8.36648 73.5324 7.89773 75.5021 7.89773C77.4718 7.89773 79.1953 8.36648 80.6726 9.30398C82.1593 10.2415 83.3146 11.5578 84.1385 13.2528C84.9718 14.9479 85.3885 16.9318 85.3885 19.2045C85.3885 21.4583 84.9718 23.428 84.1385 25.1136C83.3146 26.7992 82.1593 28.1108 80.6726 29.0483C79.1953 29.9858 77.4718 30.4545 75.5021 30.4545ZM75.5021 27.4432C76.9983 27.4432 78.2294 27.0597 79.1953 26.2926C80.1612 25.5256 80.8762 24.517 81.3402 23.267C81.8042 22.017 82.0362 20.6629 82.0362 19.2045C82.0362 17.7462 81.8042 16.3873 81.3402 15.1278C80.8762 13.8684 80.1612 12.8504 79.1953 12.0739C78.2294 11.2973 76.9983 10.9091 75.5021 10.9091C74.0059 10.9091 72.7749 11.2973 71.8089 12.0739C70.843 12.8504 70.1281 13.8684 69.6641 15.1278C69.2 16.3873 68.968 17.7462 68.968 19.2045C68.968 20.6629 69.2 22.017 69.6641 23.267C70.1281 24.517 70.843 25.5256 71.8089 26.2926C72.7749 27.0597 74.0059 27.4432 75.5021 27.4432ZM90.5057 30V8.18182H93.7443V11.5909H94.0284C94.483 10.4261 95.2169 9.52178 96.2301 8.87784C97.2434 8.22443 98.4602 7.89773 99.8807 7.89773C101.32 7.89773 102.518 8.22443 103.474 8.87784C104.44 9.52178 105.193 10.4261 105.733 11.5909H105.96C106.519 10.464 107.357 9.56913 108.474 8.90625C109.592 8.2339 110.932 7.89773 112.494 7.89773C114.445 7.89773 116.041 8.50852 117.281 9.73011C118.522 10.9422 119.142 12.8314 119.142 15.3977V30H115.79V15.3977C115.79 13.7879 115.349 12.6373 114.469 11.946C113.588 11.2547 112.551 10.9091 111.358 10.9091C109.824 10.9091 108.635 11.3731 107.793 12.3011C106.95 13.2197 106.528 14.3845 106.528 15.7955V30H103.119V15.0568C103.119 13.8163 102.717 12.8172 101.912 12.0597C101.107 11.2926 100.07 10.9091 98.8011 10.9091C97.9299 10.9091 97.1155 11.1411 96.358 11.6051C95.6098 12.0691 95.0038 12.7131 94.5398 13.5369C94.0852 14.3513 93.858 15.2936 93.858 16.3636V30H90.5057ZM134.135 30.4545C132.165 30.4545 130.437 29.9858 128.95 29.0483C127.473 28.1108 126.318 26.7992 125.484 25.1136C124.661 23.428 124.249 21.4583 124.249 19.2045C124.249 16.9318 124.661 14.9479 125.484 13.2528C126.318 11.5578 127.473 10.2415 128.95 9.30398C130.437 8.36648 132.165 7.89773 134.135 7.89773C136.105 7.89773 137.828 8.36648 139.305 9.30398C140.792 10.2415 141.947 11.5578 142.771 13.2528C143.605 14.9479 144.021 16.9318 144.021 19.2045C144.021 21.4583 143.605 23.428 142.771 25.1136C141.947 26.7992 140.792 28.1108 139.305 29.0483C137.828 29.9858 136.105 30.4545 134.135 30.4545ZM134.135 27.4432C135.631 27.4432 136.862 27.0597 137.828 26.2926C138.794 25.5256 139.509 24.517 139.973 23.267C140.437 22.017 140.669 20.6629 140.669 19.2045C140.669 17.7462 140.437 16.3873 139.973 15.1278C139.509 13.8684 138.794 12.8504 137.828 12.0739C136.862 11.2973 135.631 10.9091 134.135 10.9091C132.639 10.9091 131.408 11.2973 130.442 12.0739C129.476 12.8504 128.761 13.8684 128.297 15.1278C127.833 16.3873 127.601 17.7462 127.601 19.2045C127.601 20.6629 127.833 22.017 128.297 23.267C128.761 24.517 129.476 25.5256 130.442 26.2926C131.408 27.0597 132.639 27.4432 134.135 27.4432ZM149.593 30V0.90909H152.945V11.6477H153.229C153.476 11.2689 153.817 10.786 154.252 10.1989C154.697 9.60227 155.332 9.07197 156.156 8.60795C156.989 8.13447 158.116 7.89773 159.536 7.89773C161.373 7.89773 162.993 8.35701 164.394 9.27557C165.796 10.1941 166.889 11.4962 167.675 13.1818C168.461 14.8674 168.854 16.8561 168.854 19.1477C168.854 21.4583 168.461 23.4612 167.675 25.1562C166.889 26.8419 165.8 28.1487 164.408 29.0767C163.016 29.9953 161.411 30.4545 159.593 30.4545C158.192 30.4545 157.069 30.2225 156.227 29.7585C155.384 29.285 154.735 28.75 154.281 28.1534C153.826 27.5473 153.476 27.0455 153.229 26.6477H152.832V30H149.593ZM152.888 19.0909C152.888 20.7386 153.13 22.1922 153.613 23.4517C154.096 24.7017 154.801 25.6818 155.729 26.392C156.657 27.0928 157.794 27.4432 159.138 27.4432C160.54 27.4432 161.71 27.0739 162.647 26.3352C163.594 25.5871 164.304 24.5833 164.778 23.3239C165.261 22.0549 165.502 20.6439 165.502 19.0909C165.502 17.5568 165.265 16.1742 164.792 14.9432C164.328 13.7027 163.622 12.7225 162.675 12.0028C161.738 11.2737 160.559 10.9091 159.138 10.9091C157.775 10.9091 156.629 11.2547 155.701 11.946C154.773 12.6278 154.072 13.5843 153.599 14.8153C153.125 16.0369 152.888 17.4621 152.888 19.0909ZM173.982 30V8.18182H177.335V30H173.982ZM175.687 4.54545C175.033 4.54545 174.47 4.32292 173.996 3.87784C173.532 3.43277 173.3 2.89773 173.3 2.27273C173.3 1.64773 173.532 1.11269 173.996 0.667613C174.47 0.222538 175.033 0 175.687 0C176.34 0 176.899 0.222538 177.363 0.667613C177.836 1.11269 178.073 1.64773 178.073 2.27273C178.073 2.89773 177.836 3.43277 177.363 3.87784C176.899 4.32292 176.34 4.54545 175.687 4.54545ZM186.827 0.90909V30H183.474V0.90909H186.827ZM192.967 30V8.18182H196.319V30H192.967ZM194.671 4.54545C194.018 4.54545 193.454 4.32292 192.981 3.87784C192.517 3.43277 192.285 2.89773 192.285 2.27273C192.285 1.64773 192.517 1.11269 192.981 0.667613C193.454 0.222538 194.018 0 194.671 0C195.325 0 195.883 0.222538 196.347 0.667613C196.821 1.11269 197.058 1.64773 197.058 2.27273C197.058 2.89773 196.821 3.43277 196.347 3.87784C195.883 4.32292 195.325 4.54545 194.671 4.54545ZM211.177 30V0.90909H222.825C224.965 0.90909 226.75 1.22633 228.18 1.8608C229.61 2.49527 230.684 3.37595 231.404 4.50284C232.124 5.62027 232.484 6.90814 232.484 8.36648C232.484 9.50284 232.256 10.5019 231.802 11.3636C231.347 12.2159 230.722 12.9167 229.927 13.4659C229.141 14.0057 228.241 14.3892 227.228 14.6165V14.9006C228.336 14.9479 229.373 15.2604 230.339 15.8381C231.314 16.4157 232.105 17.2254 232.711 18.267C233.317 19.2992 233.62 20.5303 233.62 21.9602C233.62 23.5038 233.237 24.8816 232.469 26.0938C231.712 27.2964 230.59 28.2481 229.103 28.9489C227.616 29.6496 225.784 30 223.606 30H211.177ZM217.327 24.9716H222.342C224.056 24.9716 225.306 24.6449 226.092 23.9915C226.878 23.3286 227.271 22.4479 227.271 21.3494C227.271 20.5445 227.076 19.8343 226.688 19.2188C226.3 18.6032 225.746 18.1203 225.026 17.7699C224.316 17.4195 223.469 17.2443 222.484 17.2443H217.327V24.9716ZM217.327 13.0824H221.887C222.73 13.0824 223.478 12.9356 224.131 12.642C224.794 12.339 225.315 11.9129 225.694 11.3636C226.082 10.8144 226.276 10.1562 226.276 9.3892C226.276 8.33807 225.902 7.49053 225.154 6.84659C224.415 6.20265 223.364 5.88068 222.001 5.88068H217.327V13.0824ZM243.73 30.4119C242.338 30.4119 241.098 30.1705 240.009 29.6875C238.92 29.1951 238.058 28.4706 237.423 27.5142C236.798 26.5483 236.486 25.3456 236.486 23.9062C236.486 22.6941 236.708 21.6761 237.153 20.8523C237.598 20.0284 238.205 19.3655 238.972 18.8636C239.739 18.3617 240.61 17.983 241.585 17.7273C242.57 17.4716 243.602 17.2917 244.682 17.1875C245.951 17.0549 246.973 16.9318 247.75 16.8182C248.527 16.6951 249.09 16.5152 249.44 16.2784C249.791 16.0417 249.966 15.6913 249.966 15.2273V15.142C249.966 14.2424 249.682 13.5464 249.114 13.054C248.555 12.5616 247.759 12.3153 246.727 12.3153C245.638 12.3153 244.772 12.5568 244.128 13.0398C243.484 13.5133 243.058 14.1098 242.849 14.8295L237.253 14.375C237.537 13.0492 238.096 11.9034 238.929 10.9375C239.762 9.96212 240.837 9.21401 242.153 8.69318C243.479 8.16288 245.013 7.89773 246.756 7.89773C247.968 7.89773 249.128 8.03977 250.236 8.32386C251.353 8.60795 252.343 9.0483 253.205 9.64489C254.076 10.2415 254.762 11.0085 255.264 11.946C255.766 12.8741 256.017 13.9867 256.017 15.2841V30H250.278V26.9744H250.108C249.758 27.6562 249.289 28.2576 248.702 28.7784C248.115 29.2898 247.409 29.6922 246.585 29.9858C245.761 30.2699 244.81 30.4119 243.73 30.4119ZM245.463 26.2358C246.353 26.2358 247.139 26.0606 247.821 25.7102C248.503 25.3504 249.038 24.8674 249.426 24.2614C249.814 23.6553 250.009 22.9687 250.009 22.2017V19.8864C249.819 20.0095 249.559 20.1231 249.227 20.2273C248.905 20.322 248.541 20.4119 248.134 20.4972C247.726 20.5729 247.319 20.6439 246.912 20.7102C246.505 20.767 246.135 20.8191 245.804 20.8665C245.094 20.9706 244.473 21.1364 243.943 21.3636C243.413 21.5909 243.001 21.8987 242.707 22.2869C242.414 22.6657 242.267 23.1392 242.267 23.7074C242.267 24.5312 242.565 25.161 243.162 25.5966C243.768 26.0227 244.535 26.2358 245.463 26.2358ZM266.763 17.3864V30H260.712V8.18182H266.479V12.0312H266.734C267.217 10.7623 268.027 9.75852 269.163 9.01989C270.3 8.27178 271.678 7.89773 273.297 7.89773C274.812 7.89773 276.133 8.22917 277.26 8.89205C278.387 9.55492 279.263 10.5019 279.888 11.733C280.513 12.9545 280.825 14.4129 280.825 16.108V30H274.774V17.1875C274.784 15.8523 274.443 14.8106 273.751 14.0625C273.06 13.3049 272.108 12.9261 270.896 12.9261C270.082 12.9261 269.362 13.1013 268.737 13.4517C268.122 13.8021 267.639 14.3134 267.288 14.9858C266.947 15.6487 266.772 16.4489 266.763 17.3864ZM291.077 23.7216L291.092 16.4631H291.972L298.961 8.18182H305.907L296.518 19.1477H295.083L291.077 23.7216ZM285.594 30V0.90909H291.646V30H285.594ZM299.231 30L292.81 20.4972L296.844 16.2216L306.319 30H299.231Z" fill="white"/>
</svg>
